<?xml version="1.0" encoding="UTF-8"?>
<svg width="32px" height="32px" viewBox="0 0 32 32" version="1.1" xmlns="http://www.w3.org/2000/svg" xmlns:xlink="http://www.w3.org/1999/xlink">
    <title>icon_details</title>
    <defs>
        <path d="M5.5,6 L18,6 C18.9664983,6 19.75,6.78350169 19.75,7.75 C19.75,8.71649831 18.9664983,9.5 18,9.5 L5.5,9.5 C4.53350169,9.5 3.75,8.71649831 3.75,7.75 C3.75,6.78350169 4.53350169,6 5.5,6 Z M5.5,14.3 L14,14.3 C14.9664983,14.3 15.75,15.0835017 15.75,16.05 C15.75,17.0164983 14.9664983,17.8 14,17.8 L5.5,17.8 C4.53350169,17.8 3.75,17.0164983 3.75,16.05 C3.75,15.0835017 4.53350169,14.3 5.5,14.3 Z M5.5,22.6 L16,22.6 C16.9664983,22.6 17.75,23.3835017 17.75,24.35 C17.75,25.3164983 16.9664983,26.1 16,26.1 L5.5,26.1 C4.53350169,26.1 3.75,25.3164983 3.75,24.35 C3.75,23.3835017 4.53350169,22.6 5.5,22.6 Z M26,12.5 C26.9664983,12.5 27.75,13.2835017 27.75,14.25 L27.75,25.25 C27.75,26.2164983 26.9664983,27 26,27 C25.0335017,27 24.25,26.2164983 24.25,25.25 L24.25,15.999 L22.5,16 C21.5335017,16 20.75,15.2164983 20.75,14.25 C20.75,13.2835017 21.5335017,12.5 22.5,12.5 L26,12.5 Z M25.75,10 C27.1307119,10 28.25,8.88071187 28.25,7.5 C28.25,6.11928813 27.1307119,5 25.75,5 C24.3692881,5 23.25,6.11928813 23.25,7.5 C23.25,8.88071187 24.3692881,10 25.75,10 Z" id="path-1"></path>
        <filter x="-8.2%" y="-4.5%" width="116.3%" height="118.2%" filterUnits="objectBoundingBox" id="filter-2">
            <feOffset dx="0" dy="1" in="SourceAlpha" result="shadowOffsetOuter1"></feOffset>
            <feGaussianBlur stdDeviation="0.5" in="shadowOffsetOuter1" result="shadowBlurOuter1"></feGaussianBlur>
            <feColorMatrix values="0 0 0 0 0   0 0 0 0 0   0 0 0 0 0  0 0 0 0.2 0" type="matrix" in="shadowBlurOuter1"></feColorMatrix>
        </filter>
    </defs>
    <g id="icon_details" stroke="none" stroke-width="1" fill="none" fill-rule="evenodd">
        <rect id="矩形" opacity="0.300000012" x="0" y="0" width="32" height="32"></rect>
        <g id="形状结合">
            <use fill="black" fill-opacity="1" filter="url(#filter-2)" xlink:href="#path-1"></use>
            <use fill="#B4BFD0" fill-rule="evenodd" xlink:href="#path-1"></use>
        </g>
        <path d="M5.5,5 L18,5 C18.9664983,5 19.75,5.78350169 19.75,6.75 C19.75,7.71649831 18.9664983,8.5 18,8.5 L5.5,8.5 C4.53350169,8.5 3.75,7.71649831 3.75,6.75 C3.75,5.78350169 4.53350169,5 5.5,5 Z M5.5,13.3 L14,13.3 C14.9664983,13.3 15.75,14.0835017 15.75,15.05 C15.75,16.0164983 14.9664983,16.8 14,16.8 L5.5,16.8 C4.53350169,16.8 3.75,16.0164983 3.75,15.05 C3.75,14.0835017 4.53350169,13.3 5.5,13.3 Z M5.5,21.6 L16,21.6 C16.9664983,21.6 17.75,22.3835017 17.75,23.35 C17.75,24.3164983 16.9664983,25.1 16,25.1 L5.5,25.1 C4.53350169,25.1 3.75,24.3164983 3.75,23.35 C3.75,22.3835017 4.53350169,21.6 5.5,21.6 Z M26,11.5 C26.9664983,11.5 27.75,12.2835017 27.75,13.25 L27.75,24.25 C27.75,25.2164983 26.9664983,26 26,26 C25.0335017,26 24.25,25.2164983 24.25,24.25 L24.25,14.999 L22.5,15 C21.5335017,15 20.75,14.2164983 20.75,13.25 C20.75,12.2835017 21.5335017,11.5 22.5,11.5 L26,11.5 Z M25.75,9 C27.1307119,9 28.25,7.88071187 28.25,6.5 C28.25,5.11928813 27.1307119,4 25.75,4 C24.3692881,4 23.25,5.11928813 23.25,6.5 C23.25,7.88071187 24.3692881,9 25.75,9 Z" id="形状结合" fill="#FFFFFF"></path>
    </g>
</svg>